<?xml version="1.0" standalone="no"?>
<!DOCTYPE svg PUBLIC "-//W3C//DTD SVG 20010904//EN"
 "http://www.w3.org/TR/2001/REC-SVG-20010904/DTD/svg10.dtd">
<svg version="1.0" xmlns="http://www.w3.org/2000/svg"
 width="692.000000pt" height="684.000000pt" viewBox="0 0 692.000000 684.000000"
 preserveAspectRatio="xMidYMid meet">

<g transform="translate(0.000000,684.000000) scale(0.100000,-0.100000)"
fill="#000000" stroke="none">
<path d="M3395 4244 c-11 -2 -45 -9 -75 -15 -127 -25 -290 -131 -370 -241
l-28 -38 -25 20 c-43 34 -128 68 -201 81 -136 23 -281 -26 -386 -131 -257
-257 -110 -700 252 -761 108 -18 247 16 341 83 15 11 21 8 44 -22 45 -60 125
-130 193 -170 225 -133 505 -115 720 46 51 39 125 119 149 162 6 11 18 6 54
-21 196 -150 504 -94 638 115 56 87 79 169 75 268 -5 117 -38 198 -118 284
-155 170 -402 198 -593 66 l-49 -33 -15 24 c-8 13 -49 58 -90 100 -58 58 -96
85 -161 117 -114 57 -263 84 -355 66z m115 -75 c0 -27 -2 -30 -15 -19 -10 9
-15 9 -15 1 0 -6 -4 -11 -10 -11 -5 0 -10 14 -10 30 0 25 4 30 25 30 21 0 25
-5 25 -31z m64 25 c25 -9 19 -33 -10 -45 -33 -12 -37 -8 -28 25 6 27 12 30 38
20z m-219 -14 c3 -5 -3 -10 -15 -10 -13 0 -20 -5 -17 -12 2 -7 15 -12 28 -10
22 2 23 2 7 -14 -22 -22 -48 -11 -48 20 0 30 31 48 45 26z m80 -20 c0 -33 -40
-41 -50 -11 -9 28 2 43 28 39 16 -2 22 -10 22 -28z m223 -16 c4 -30 -20 -47
-43 -31 -12 10 -15 20 -10 36 9 29 49 25 53 -5z m62 -4 c17 -9 18 -14 8 -35
-13 -29 -28 -33 -29 -7 0 10 -3 12 -6 4 -2 -6 -9 -10 -13 -7 -8 5 8 55 17 55
2 0 13 -5 23 -10z m-472 -32 c13 3 14 1 3 -12 -18 -22 -26 -20 -39 9 -16 35
-14 44 4 20 8 -11 22 -18 32 -17z m-50 -38 c3 -8 0 -10 -7 -6 -6 4 -14 0 -17
-9 -9 -22 -24 0 -24 34 0 22 1 22 22 9 12 -8 24 -21 26 -28z m592 18 c0 -33
-15 -55 -23 -34 -4 9 -13 13 -22 10 -22 -9 -18 5 8 27 29 24 37 24 37 -3z
m-387 -15 c-7 -2 -19 -2 -25 0 -7 3 -2 5 12 5 14 0 19 -2 13 -5z m164 1 c-3
-3 -12 -4 -19 -1 -8 3 -5 6 6 6 11 1 17 -2 13 -5z m279 -9 c13 -10 15 -14 5
-15 -8 0 -23 -7 -33 -17 -10 -9 -18 -11 -18 -5 0 6 5 14 11 17 6 4 8 13 5 21
-7 18 5 18 30 -1z m-730 -4 c-3 -5 1 -14 9 -21 8 -7 15 -17 15 -23 0 -5 -8 -3
-18 6 -10 10 -24 17 -32 17 -10 0 -10 3 0 15 13 16 35 21 26 6z m491 3 c-3 -3
-12 -4 -19 -1 -8 3 -5 6 6 6 11 1 17 -2 13 -5z m-337 -28 c0 -2 -16 -13 -35
-25 -19 -11 -35 -18 -35 -16 0 5 61 45 68 45 1 0 2 -2 2 -4z m425 -6 c3 -6 -1
-7 -9 -4 -18 7 -21 14 -7 14 6 0 13 -4 16 -10z m202 -35 c-9 -10 -15 -10 -26
-2 -11 10 -13 8 -6 -13 7 -22 6 -23 -9 -11 -20 17 -20 30 1 53 15 17 18 17 34
2 14 -13 15 -19 6 -29z m-812 15 c27 -30 12 -34 -15 -5 -13 14 -19 25 -13 25
5 0 18 -9 28 -20z m671 -21 c3 -6 -5 -3 -20 6 -14 10 -26 19 -26 22 0 7 39
-17 46 -28z m-702 -12 c21 -15 12 -47 -14 -47 -28 0 -45 27 -30 45 15 18 21
19 44 2z m96 -32 c-24 -25 -46 -45 -49 -45 -3 0 15 20 39 45 24 25 46 45 49
45 3 0 -15 -20 -39 -45z m721 -79 c6 -12 0 -7 -13 9 -13 17 -38 48 -57 70 -22
26 -17 23 13 -9 26 -27 51 -58 57 -70z m-1231 61 c0 -4 9 -3 21 3 24 13 82 3
73 -12 -4 -6 1 -8 12 -4 20 6 47 -6 44 -20 -1 -5 4 -10 11 -13 8 -2 9 1 3 10
-6 11 -4 11 12 -1 52 -39 54 -42 41 -58 -6 -8 -11 -17 -9 -19 1 -1 2 -11 1
-20 0 -14 -2 -15 -6 -3 -6 16 -23 30 -35 30 -16 0 -7 -30 13 -44 17 -12 20
-20 14 -43 -5 -15 -7 -37 -6 -48 1 -14 -1 -16 -7 -7 -12 17 -47 -21 -38 -43 8
-22 29 -7 23 16 -3 11 -1 17 4 13 12 -7 12 -41 -1 -49 -6 -3 -5 -15 2 -31 10
-22 9 -27 -5 -35 -23 -13 -22 -36 2 -44 18 -6 47 -83 34 -95 -3 -3 -8 0 -10 7
-7 20 -63 -5 -63 -29 0 -15 -5 -19 -20 -15 -10 3 -22 0 -25 -7 -3 -8 -7 -8
-11 2 -3 6 -12 12 -20 12 -8 0 -14 9 -14 19 0 24 -18 37 -31 24 -6 -6 -4 -15
6 -23 8 -7 15 -19 15 -26 0 -8 6 -11 15 -8 8 4 15 1 15 -5 0 -16 -30 -13 -36
3 -7 19 -64 18 -64 -1 0 -10 6 -12 20 -8 11 4 29 0 42 -9 21 -15 17 -22 -7
-16 -30 7 -75 7 -75 0 0 -16 19 -21 39 -10 14 7 22 7 26 0 4 -6 15 -8 26 -5
10 4 19 2 19 -3 0 -15 -45 -23 -89 -16 -27 4 -38 11 -37 23 0 9 -5 16 -11 16
-7 0 -12 -4 -10 -8 3 -11 -33 -31 -40 -23 -4 3 0 6 8 6 8 1 3 7 -11 15 -31 18
-43 19 -34 3 4 -8 3 -10 -2 -5 -5 5 -9 12 -9 15 0 13 -16 32 -27 32 -7 0 -6
-6 2 -15 25 -30 3 -14 -31 22 -18 20 -25 31 -15 23 11 -8 27 -14 38 -12 10 2
18 -1 18 -7 0 -6 12 -8 29 -5 20 4 30 2 34 -10 7 -18 77 -23 77 -5 0 6 -9 9
-20 6 -11 -3 -23 -1 -26 4 -3 5 2 9 12 9 13 0 14 3 4 15 -11 13 -8 15 14 15
16 0 26 5 26 15 0 18 -10 19 -42 2 -15 -7 -23 -18 -20 -27 5 -13 3 -13 -11 -1
-21 17 -22 41 -2 41 12 0 13 4 5 19 -5 11 -7 27 -4 35 4 10 0 18 -10 22 -27
10 -31 -4 -12 -36 15 -26 15 -30 2 -30 -9 0 -16 -8 -16 -17 -1 -15 -4 -14 -20
6 -15 17 -17 27 -10 36 7 9 7 21 0 39 -5 15 -10 41 -10 57 0 23 -4 30 -17 27
-9 -2 -15 -6 -12 -9 6 -10 -32 -49 -48 -49 -7 0 -13 5 -13 11 0 7 -8 18 -17
25 -13 9 -15 16 -7 24 7 7 16 5 29 -10 24 -26 32 -25 37 4 4 17 1 23 -9 19 -9
-4 -11 0 -7 11 3 9 2 16 -3 16 -20 0 -63 -26 -67 -40 -2 -8 -4 -3 -5 13 0 15
3 27 8 27 4 0 6 12 3 26 -4 20 -2 25 8 19 9 -5 10 -2 6 13 -17 53 95 185 186
221 51 19 128 24 128 8z m381 -25 c-13 -4 -41 16 -41 29 0 5 12 2 26 -8 15 -9
21 -19 15 -21z m945 23 c7 -17 -12 -45 -31 -45 -18 0 -27 30 -14 46 15 18 38
18 45 -1z m418 4 c-5 -8 0 -10 17 -6 28 7 108 -28 151 -65 31 -27 88 -106 88
-122 0 -6 -5 -4 -10 4 -7 10 -10 11 -10 2 0 -7 7 -15 15 -18 10 -4 13 -14 9
-33 -4 -18 -3 -22 4 -13 7 10 11 3 15 -25 8 -47 8 -94 0 -73 -9 22 -46 48 -60
43 -7 -3 -10 -10 -6 -16 4 -6 0 -8 -9 -5 -10 4 -14 0 -13 -13 2 -24 14 -36 23
-23 10 16 52 28 52 14 0 -6 -7 -13 -15 -16 -8 -4 -15 -12 -15 -20 0 -8 -7 -14
-16 -14 -20 0 -44 24 -44 44 0 9 -7 16 -15 16 -9 0 -15 -9 -15 -25 0 -14 -6
-41 -14 -59 -10 -24 -11 -37 -3 -45 7 -7 6 -15 -3 -26 -7 -8 -10 -18 -7 -21 3
-3 13 8 21 25 10 18 12 32 6 36 -6 4 -5 15 2 30 8 18 13 21 23 12 6 -6 10 -21
7 -32 -9 -35 -62 -105 -80 -105 -10 0 -24 -6 -32 -12 -12 -11 -12 -10 -1 5 7
9 22 17 32 17 11 0 19 5 19 10 0 6 -4 10 -10 10 -5 0 -7 7 -4 15 4 9 0 15 -10
15 -20 0 -20 9 0 31 17 19 11 39 -12 39 -8 0 -14 -9 -14 -21 0 -11 -5 -29 -10
-40 -9 -16 -7 -19 10 -19 23 0 26 -10 8 -28 -14 -14 -32 -16 -24 -3 7 11 -42
44 -54 36 -19 -12 -11 -38 10 -32 28 7 33 -7 10 -28 -24 -22 -26 -35 -5 -35 8
0 15 7 15 15 0 8 5 15 11 15 5 0 7 -4 4 -10 -3 -5 3 -10 14 -10 12 0 21 5 21
11 0 7 12 9 30 7 17 -3 33 -1 36 4 3 4 10 8 16 8 7 0 7 -4 -1 -13 -6 -8 -8
-16 -5 -19 3 -3 -3 -5 -13 -5 -9 1 -18 -3 -18 -10 0 -6 -4 -15 -9 -20 -5 -5
-6 -3 -2 5 9 15 6 15 -37 -3 -45 -19 -48 -19 -40 1 4 11 2 15 -6 13 -7 -3 -12
-8 -11 -13 1 -5 -4 -13 -12 -17 -19 -12 -106 -11 -113 1 -10 16 39 61 61 58
11 -2 20 1 22 6 4 15 -48 13 -60 -1 -6 -7 -17 -13 -26 -13 -8 0 -12 3 -8 8 4
4 9 5 11 2 6 -9 46 50 40 59 -3 5 -1 12 5 16 5 3 10 16 10 29 0 19 4 22 30 18
17 -2 30 -8 30 -13 0 -5 9 -9 20 -9 14 0 20 7 20 21 0 17 -4 20 -23 15 -13 -3
-44 0 -68 7 -36 11 -43 17 -41 34 2 14 -4 24 -18 28 -19 6 -29 25 -12 25 32
-1 53 -15 50 -33 -2 -17 5 -23 36 -30 31 -8 41 -7 50 6 10 13 17 13 51 1 52
-18 55 -18 55 7 0 17 -4 20 -24 15 -14 -3 -37 -1 -52 4 -21 8 -29 7 -39 -6 -8
-12 -19 -15 -38 -10 -31 8 -36 26 -7 26 13 0 20 7 20 20 0 11 4 20 10 20 5 0
7 -7 4 -15 -4 -8 -1 -15 5 -15 15 0 14 22 -2 45 -17 22 -40 11 -32 -16 7 -21
-18 -26 -45 -9 -12 7 -12 12 -2 22 17 17 15 38 -3 38 -9 0 -15 -9 -15 -25 0
-18 -5 -25 -19 -25 -11 0 -21 -9 -24 -22 -7 -26 -1 -38 20 -38 11 0 14 -6 9
-25 -5 -18 -2 -25 8 -25 21 0 30 -19 16 -35 -6 -8 -9 -19 -6 -24 4 -5 1 -13
-5 -16 -5 -4 -8 -14 -5 -22 4 -9 -1 -17 -14 -20 -11 -3 -20 -9 -20 -14 0 -5
-4 -9 -10 -9 -5 0 -10 7 -10 15 0 8 7 15 15 15 8 0 15 9 15 20 0 13 -5 18 -15
14 -8 -4 -15 -12 -15 -20 0 -8 -5 -14 -11 -14 -6 0 -9 9 -6 20 3 11 0 20 -6
20 -6 0 -7 3 -4 7 4 3 -1 12 -11 19 -16 13 -16 13 0 14 10 0 22 8 27 18 7 14
5 21 -10 30 -16 10 -19 9 -19 -3 0 -8 -4 -15 -10 -15 -5 0 -10 -11 -10 -25 0
-22 -2 -24 -19 -13 -11 7 -19 14 -18 17 1 4 -2 7 -8 9 -5 1 -11 -6 -13 -18 -2
-13 2 -20 13 -20 29 0 75 -30 75 -49 0 -11 6 -22 13 -24 6 -3 3 -6 -7 -6 -11
-1 -17 -4 -13 -7 3 -4 -1 -13 -9 -21 -8 -8 -11 -19 -8 -25 4 -6 -2 -5 -15 1
-23 13 -29 23 -8 15 13 -5 37 34 37 60 0 19 -48 38 -67 27 -14 -7 -13 -10 5
-20 14 -7 22 -8 22 -2 0 6 6 8 14 5 19 -7 9 -34 -13 -34 -14 0 -14 -2 -1 -10
8 -5 10 -10 4 -10 -5 0 -24 15 -41 33 -31 32 -31 33 -20 87 7 32 20 62 32 72
20 16 20 16 0 38 -16 18 -17 24 -6 42 9 14 10 23 2 27 -6 4 -14 22 -17 41 -5
22 -4 31 3 27 12 -8 39 20 30 30 -4 3 -13 1 -20 -5 -16 -13 -27 -6 -27 17 0
14 2 14 10 1 12 -20 35 2 26 25 -4 12 -10 14 -25 6 -15 -9 -20 -7 -24 11 -6
20 2 29 62 74 8 7 22 9 30 6 9 -3 12 -1 7 6 -5 8 -1 10 10 5 11 -4 15 -2 11 4
-12 19 59 40 141 42 38 1 51 -2 46 -10z m-887 -12 c-2 -7 -48 -88 -100 -180
-91 -160 -105 -196 -79 -205 11 -3 71 82 94 135 7 15 25 46 40 67 22 30 25 42
17 53 -9 10 -9 12 3 8 9 -4 22 9 37 36 l24 41 20 -33 c43 -71 62 -99 71 -99 5
0 3 6 -3 14 -7 9 -8 17 -3 20 6 3 13 -2 16 -11 5 -11 10 -14 14 -6 4 6 21 8
38 6 25 -4 31 -9 27 -24 -3 -10 -1 -19 4 -19 5 0 9 14 8 30 -1 20 3 30 13 30
9 0 12 -6 8 -16 -4 -10 -2 -13 6 -8 8 5 9 2 5 -10 -5 -11 -3 -15 5 -10 8 5 9
2 5 -9 -3 -10 -4 -17 -1 -17 2 0 9 10 14 23 l9 22 0 -22 c1 -28 -15 -38 -34
-23 -8 7 -15 11 -16 9 0 -2 -2 -12 -5 -21 -2 -10 -6 -26 -7 -35 -2 -9 -10 -19
-18 -21 -11 -3 -11 -1 1 7 11 8 12 11 2 11 -7 0 -20 -6 -28 -14 -12 -13 -12
-17 1 -30 8 -8 15 -19 15 -25 0 -6 9 -15 21 -21 11 -6 18 -17 16 -23 -3 -7 11
-40 30 -74 l34 -63 -103 0 -103 0 -43 73 c-23 39 -48 79 -54 88 -15 22 29 74
49 58 7 -6 13 -16 13 -21 0 -5 17 -38 37 -73 32 -56 41 -65 66 -65 l29 0 -35
63 c-23 40 -41 61 -51 59 -12 -2 -16 5 -16 28 0 19 -4 29 -10 25 -6 -4 -7 -11
-4 -17 4 -7 2 -8 -5 -4 -6 4 -9 12 -5 17 3 6 -5 8 -21 5 -23 -4 -26 -2 -22 14
3 10 -1 21 -8 24 -9 3 -12 -2 -10 -15 2 -11 0 -17 -5 -14 -5 3 -16 -5 -24 -17
-18 -25 -21 -42 -6 -33 6 4 10 -5 10 -19 0 -14 6 -26 13 -26 8 0 7 -4 -3 -10
-13 -9 -7 -14 13 -11 14 2 7 -27 -8 -33 -14 -5 -12 -12 10 -51 l27 -45 -36 0
c-33 0 -39 5 -67 51 l-32 50 -28 -50 -29 -51 -100 0 c-55 0 -100 2 -100 4 0 3
23 44 51 92 l51 88 -34 28 c-25 21 -30 30 -20 36 11 7 8 14 -14 31 -14 11 -22
21 -15 21 6 0 11 4 11 9 0 6 -12 6 -29 1 -31 -9 -41 -5 -41 17 0 7 9 13 20 13
11 0 20 -4 20 -10 0 -21 18 -9 24 15 4 15 11 23 17 19 8 -4 7 -9 -2 -15 -11
-7 -10 -9 5 -9 13 0 17 5 13 20 -3 10 -2 19 2 18 3 -1 16 3 27 10 12 6 24 8
28 4 4 -3 11 0 17 8 8 13 10 13 18 0 11 -15 3 -38 -8 -23 -3 5 -19 6 -36 2
-23 -5 -25 -7 -8 -8 25 -1 63 -29 63 -46 0 -5 -5 -3 -10 5 -6 10 -10 11 -10 3
0 -7 -3 -12 -7 -12 -5 1 -17 1 -27 0 -18 -1 -18 -2 3 -25 15 -16 18 -25 10
-28 -19 -6 -20 -36 0 -34 9 2 16 9 16 17 0 8 5 17 10 21 6 5 6 8 -1 8 -6 0
-11 6 -11 13 0 7 10 13 21 13 25 -1 34 41 16 74 -7 13 -7 20 0 20 5 0 10 -4
10 -10 0 -5 7 -10 16 -10 10 0 14 6 11 14 -4 9 -1 13 6 10 8 -3 27 20 47 56
31 55 37 60 68 60 24 0 33 -4 29 -13z m-503 -30 c16 -12 17 -16 5 -34 -10 -18
-16 -19 -36 -10 -24 11 -27 16 -17 41 7 19 24 20 48 3z m90 -22 c-9 -14 -18
-25 -21 -25 -5 0 5 18 20 38 17 22 18 13 1 -13z m921 -6 c3 -3 -6 -16 -20 -29
l-25 -23 0 21 c0 12 -6 22 -12 23 -7 0 -4 4 7 8 21 9 41 8 50 0z m-107 -44
c-3 -3 -9 2 -12 12 -6 14 -5 15 5 6 7 -7 10 -15 7 -18z m22 -50 c0 -5 -5 -3
-10 5 -5 8 -10 20 -10 25 0 6 5 3 10 -5 5 -8 10 -19 10 -25z m100 15 c-9 -16
-8 -18 5 -14 8 4 15 2 15 -4 0 -11 -49 -26 -58 -18 -2 3 1 13 9 23 12 15 12
16 -3 10 -10 -3 -18 -2 -18 2 0 11 18 19 43 20 15 1 16 -2 7 -19z m-1080 -10
c0 -13 1 -13 10 0 8 12 10 10 10 -8 0 -20 -4 -23 -27 -20 -35 4 -48 48 -14 45
12 -1 21 -8 21 -17z m999 -79 c1 -35 -5 -22 -12 24 -5 28 -4 34 3 20 5 -11 9
-31 9 -44z m-1659 17 c0 -15 -4 -18 -22 -12 -31 9 -33 11 -19 28 16 19 41 9
41 -16z m737 0 c-3 -8 -6 -5 -6 6 -1 11 2 17 5 13 3 -3 4 -12 1 -19z m1036 -2
c7 -18 -4 -32 -30 -40 -17 -5 -23 -2 -28 15 -13 38 44 62 58 25z m667 16 c0
-9 -21 -32 -30 -32 -3 0 -6 9 -6 20 0 13 7 20 18 20 10 0 18 -4 18 -8z m-1817
-22 c-4 -14 0 -20 12 -20 12 0 15 5 10 20 -4 12 -2 20 5 20 14 0 9 -52 -5 -57
-19 -6 -49 23 -42 41 9 23 26 20 20 -4z m104 -127 c-2 -21 -4 -4 -4 37 0 41 2
58 4 38 2 -21 2 -55 0 -75z m-772 67 c-3 -5 -1 -10 4 -10 6 0 11 5 11 12 0 9
3 9 12 0 16 -16 -4 -37 -26 -29 -18 7 -22 37 -5 37 5 0 7 -4 4 -10z m1825 0
c0 -5 -11 -10 -25 -10 -14 0 -25 -4 -25 -10 0 -5 12 -10 26 -10 14 0 23 -4 19
-10 -9 -15 -45 -12 -51 5 -10 25 4 45 31 45 14 0 25 -4 25 -10z m678 -7 c-2
-10 -12 -18 -23 -18 -11 0 -21 8 -23 18 -3 13 3 17 23 17 20 0 26 -4 23 -17z
m-1803 -2 c3 -6 -3 -14 -12 -20 -17 -10 -17 -10 0 -11 9 0 17 -4 17 -10 0 -5
-13 -10 -30 -10 -32 0 -37 9 -18 28 9 9 9 12 0 12 -7 0 -12 5 -12 10 0 13 47
13 55 1z m570 -10 c-8 -14 -25 -14 -25 0 0 5 5 7 10 4 6 -3 10 -1 10 6 0 7 3
10 6 6 3 -3 3 -10 -1 -16z m-1237 -64 c3 -12 -3 -17 -22 -17 -25 0 -35 18 -19
34 12 12 38 2 41 -17z m2467 3 c0 -8 -10 -16 -22 -18 -22 -3 -32 16 -16 32 12
11 38 2 38 -14z m-1397 -2 c-2 -6 -10 -13 -16 -14 -9 -2 -9 -1 -1 3 8 4 7 8
-2 14 -11 7 -10 9 4 9 10 0 17 -5 15 -12z m708 2 c16 0 19 -36 4 -45 -5 -3
-10 2 -10 12 0 15 -2 16 -10 3 -8 -13 -10 -12 -11 5 -1 17 -2 17 -6 3 -5 -19
-23 -25 -23 -9 0 23 14 42 27 37 8 -3 21 -6 29 -6z m-1729 -22 c-3 -8 -6 -5
-6 6 -1 11 2 17 5 13 3 -3 4 -12 1 -19z m48 -12 c20 8 20 -19 0 -36 -12 -10
-16 -8 -25 15 -13 34 -13 70 0 38 6 -15 15 -21 25 -17z m571 9 c2 -22 -1 -24
-25 -19 -36 9 -39 14 -17 30 29 20 41 17 42 -11z m1001 -17 c-3 -7 -5 -2 -5
12 0 14 2 19 5 13 2 -7 2 -19 0 -25z m720 10 c-3 -8 -6 -5 -6 6 -1 11 2 17 5
13 3 -3 4 -12 1 -19z m-2217 -30 c0 -10 -4 -18 -10 -18 -17 0 32 -71 55 -80
13 -5 26 -15 30 -22 6 -10 5 -11 -6 0 -7 6 -21 12 -30 12 -9 0 -31 21 -49 48
-29 43 -32 42 -13 -5 4 -11 3 -14 -5 -9 -7 4 -12 2 -12 -4 0 -15 -18 -3 -30
20 -8 16 -7 18 4 14 10 -4 16 5 21 27 13 57 44 69 45 17z m2190 3 c-6 -16 -9
-35 -5 -40 3 -7 0 -8 -9 -5 -8 3 -19 19 -25 35 -9 27 -8 30 8 24 12 -4 21 0
25 11 4 9 9 14 13 11 3 -4 0 -20 -7 -36z m-1613 -3 c-3 -7 -5 -2 -5 12 0 14 2
19 5 13 2 -7 2 -19 0 -25z m-741 -8 c0 -13 -7 -20 -18 -20 -23 0 -23 16 0 29
9 6 17 11 17 11 1 0 1 -9 1 -20z m2433 11 c21 -13 6 -41 -18 -34 -12 3 -21 10
-21 15 0 5 4 6 10 3 6 -3 7 1 4 9 -7 18 4 20 25 7z m-789 -46 c-16 -47 -23
-40 -8 8 6 20 13 35 16 33 2 -3 -1 -21 -8 -41z m-970 25 c0 -5 -3 -10 -7 -10
-5 0 -18 -3 -30 -6 -13 -4 -23 -2 -23 4 0 9 9 13 53 21 4 0 7 -3 7 -9z m8 -72
c-18 -11 -50 -10 -43 2 3 6 13 10 21 10 8 0 14 10 15 23 0 22 0 22 10 -2 7
-18 6 -27 -3 -33z m1078 41 c4 -7 -2 -9 -17 -7 -13 2 -29 -4 -36 -12 -11 -13
-12 -13 -13 1 0 9 3 19 7 22 10 11 51 8 59 -4z m-977 -46 c12 -24 19 -43 16
-43 -5 0 -45 75 -45 86 0 11 6 2 29 -43z m1535 24 c-5 -15 -3 -17 7 -12 8 5
11 4 6 -1 -5 -5 -12 -9 -15 -9 -4 0 -13 -4 -20 -8 -8 -6 -12 -4 -10 5 2 7 -3
12 -10 10 -9 -2 -10 3 -3 16 13 25 53 24 45 -1z m-1774 -26 c0 -5 9 -7 20 -4
21 5 28 -11 10 -22 -6 -4 -8 -10 -5 -15 3 -4 -3 -14 -13 -21 -16 -13 -16 -13
-2 5 14 18 13 19 -3 13 -10 -4 -16 -3 -12 2 3 5 -4 13 -15 16 -17 5 -19 10 -9
21 13 16 29 19 29 5z m1065 -21 c-9 -16 -18 -30 -21 -30 -2 0 2 14 11 30 9 17
18 30 21 30 2 0 -2 -13 -11 -30z m-897 -3 c2 -8 -6 -21 -18 -27 -28 -15 -39
-4 -15 14 11 8 15 18 10 26 -5 8 -3 11 6 8 8 -3 15 -12 17 -21z m1032 12 c0
-3 -7 -14 -15 -25 -13 -17 -14 -17 -15 -1 0 9 -7 17 -15 17 -8 0 -15 4 -15 9
0 4 13 8 30 7 16 -1 30 -4 30 -7z m85 -18 l20 -25 -26 20 c-15 10 -25 23 -22
27 3 5 6 7 7 5 0 -2 10 -14 21 -27z m-1315 -25 c0 -8 5 -16 12 -18 7 -3 5 -7
-6 -11 -9 -4 -15 -3 -11 2 3 5 -2 17 -11 25 -14 15 -14 16 0 16 9 0 16 -6 16
-14z m-75 -6 c-3 -5 -12 -10 -18 -10 -7 0 -6 4 3 10 19 12 23 12 15 0z m41 -4
c12 -12 9 -16 -18 -25 -42 -15 -42 -15 -21 14 21 29 21 29 39 11z m250 -1 c-3
-9 1 -18 9 -21 21 -9 8 -24 -21 -24 -28 0 -30 7 -8 38 17 25 29 29 20 7z m969
1 c16 -12 17 -16 6 -30 -7 -9 -19 -16 -26 -16 -19 0 -38 28 -31 45 7 19 26 19
51 1z m268 -11 c21 -29 21 -29 -22 -14 -25 9 -29 14 -20 25 16 19 21 17 42
-11z m-404 -15 c-12 -16 -41 -44 -63 -61 -32 -25 -28 -19 19 29 33 33 61 61
63 62 1 0 -7 -13 -19 -30z m428 24 c-3 -3 -12 -4 -19 -1 -8 3 -5 6 6 6 11 1
17 -2 13 -5z m-1122 -54 c21 -22 37 -40 34 -40 -3 0 -23 18 -44 40 -21 22 -37
40 -34 40 3 0 23 -18 44 -40z m-558 4 c-3 -3 -12 -4 -19 -1 -8 3 -5 6 6 6 11
1 17 -2 13 -5z m126 -1 c-7 -2 -19 -2 -25 0 -7 3 -2 5 12 5 14 0 19 -2 13 -5z
m1554 1 c-3 -3 -12 -4 -19 -1 -8 3 -5 6 6 6 11 1 17 -2 13 -5z m86 -11 c-13
-2 -33 -2 -45 0 -13 2 -3 4 22 4 25 0 35 -2 23 -4z m-1113 -70 c0 -7 -39 17
-46 28 -3 6 5 3 20 -6 14 -10 26 -19 26 -22z m490 12 c0 -2 -10 -9 -22 -15
-22 -11 -22 -10 -4 4 21 17 26 19 26 11z m-455 -33 c-3 -3 -11 0 -18 7 -9 10
-8 11 6 5 10 -3 15 -9 12 -12z m395 -2 c-8 -5 -19 -10 -25 -10 -5 0 -3 5 5 10
8 5 20 10 25 10 6 0 3 -5 -5 -10z m-350 -10 c8 -5 11 -10 5 -10 -5 0 -17 5
-25 10 -8 5 -10 10 -5 10 6 0 17 -5 25 -10z m47 -16 c-3 -3 -12 -4 -19 -1 -8
3 -5 6 6 6 11 1 17 -2 13 -5z m230 0 c-3 -3 -12 -4 -19 -1 -8 3 -5 6 6 6 11 1
17 -2 13 -5z m-164 -11 c-7 -2 -21 -2 -30 0 -10 3 -4 5 12 5 17 0 24 -2 18 -5z
m120 0 c-7 -2 -21 -2 -30 0 -10 3 -4 5 12 5 17 0 24 -2 18 -5z m-233 -58 c0
-13 -4 -27 -10 -30 -5 -3 -10 -1 -10 4 0 6 -10 11 -22 11 l-21 0 23 25 c26 28
40 25 40 -10z m321 3 c10 -18 8 -24 -7 -35 -25 -18 -33 -16 -40 11 -11 46 25
65 47 24z m-223 -7 c18 -11 11 -55 -8 -58 -26 -5 -38 11 -33 40 5 28 18 33 41
18z m118 -12 c4 -8 0 -9 -15 -4 -16 5 -21 2 -21 -10 0 -13 6 -16 21 -12 13 3
19 1 16 -6 -7 -22 -45 -20 -52 2 -3 12 -3 25 0 31 8 13 42 13 51 -1z"/>
<path d="M3400 4166 c0 -8 5 -18 10 -21 6 -3 10 3 10 14 0 12 -4 21 -10 21 -5
0 -10 -6 -10 -14z"/>
<path d="M3626 4153 c-9 -9 -7 -33 3 -33 12 0 22 28 12 34 -5 3 -11 3 -15 -1z"/>
<path d="M3027 3973 c-13 -12 -7 -23 11 -22 10 0 12 3 4 6 -6 2 -10 9 -6 14 6
10 0 12 -9 2z"/>
<path d="M2670 3910 c-12 -8 -11 -10 7 -10 12 0 25 5 28 10 8 13 -15 13 -35 0z"/>
<path d="M2808 3863 c7 -3 16 -2 19 1 4 3 -2 6 -13 5 -11 0 -14 -3 -6 -6z"/>
<path d="M2750 3856 c0 -2 9 -6 20 -9 11 -3 18 -1 14 4 -5 9 -34 13 -34 5z"/>
<path d="M2700 3846 c0 -2 7 -6 15 -10 8 -3 15 -1 15 4 0 6 -7 10 -15 10 -8 0
-15 -2 -15 -4z"/>
<path d="M2814 3835 c11 -8 22 -12 25 -9 6 6 -19 24 -34 24 -5 -1 -1 -7 9 -15z"/>
<path d="M2747 3833 c-7 -6 21 -32 36 -33 14 0 7 28 -9 34 -19 7 -19 7 -27 -1z"/>
<path d="M2683 3791 c10 -12 9 -14 -5 -8 -21 8 -30 -4 -17 -23 5 -9 9 -10 9
-3 0 6 8 14 18 17 24 8 24 32 1 32 -15 0 -16 -3 -6 -15z"/>
<path d="M2750 3795 c14 -17 13 -18 -3 -12 -11 4 -16 3 -12 -3 3 -6 1 -10 -6
-10 -8 0 -8 -4 1 -15 7 -8 17 -15 22 -15 6 0 4 8 -3 17 -12 15 -12 16 4 10 10
-4 16 -3 12 2 -3 5 1 11 7 13 8 3 3 10 -12 18 -24 13 -24 12 -10 -5z"/>
<path d="M2790 3771 c0 -6 9 -15 20 -21 13 -7 20 -7 20 -1 0 6 -9 15 -20 21
-13 7 -20 7 -20 1z"/>
<path d="M2346 3753 c-6 -14 -5 -15 5 -6 7 7 10 15 7 18 -3 3 -9 -2 -12 -12z"/>
<path d="M2630 3760 c0 -6 -4 -8 -10 -5 -5 3 -10 2 -10 -4 0 -5 5 -13 10 -16
6 -3 10 -1 10 5 0 6 5 8 10 5 6 -3 10 -2 10 4 0 5 -4 13 -10 16 -5 3 -10 1
-10 -5z"/>
<path d="M2517 3739 c4 -13 8 -18 11 -10 2 7 -1 18 -6 23 -8 8 -9 4 -5 -13z"/>
<path d="M2564 3749 c-3 -6 -1 -16 5 -22 8 -8 11 -5 11 11 0 24 -5 28 -16 11z"/>
<path d="M2590 3746 c0 -8 4 -17 9 -20 5 -4 7 3 4 14 -6 23 -13 26 -13 6z"/>
<path d="M2700 3753 c0 -13 29 -38 35 -31 3 3 -4 13 -15 23 -11 10 -20 13 -20
8z"/>
<path d="M2541 3734 c0 -11 3 -14 6 -6 3 7 2 16 -1 19 -3 4 -6 -2 -5 -13z"/>
<path d="M2790 3735 c7 -8 17 -15 22 -15 6 0 5 7 -2 15 -7 8 -17 15 -22 15 -6
0 -5 -7 2 -15z"/>
<path d="M2403 3727 c-4 -6 -1 -7 7 -2 10 6 12 4 7 -8 -9 -23 0 -22 12 1 8 14
6 19 -5 19 -8 0 -18 -5 -21 -10z"/>
<path d="M2680 3732 c0 -5 7 -15 15 -22 8 -7 15 -8 15 -2 0 5 -7 15 -15 22 -8
7 -15 8 -15 2z"/>
<path d="M2440 3710 c-6 -12 -9 -24 -7 -27 3 -2 11 5 17 17 6 12 9 24 7 27 -3
2 -11 -5 -17 -17z"/>
<path d="M2650 3724 c0 -15 22 -44 31 -39 11 7 -7 45 -21 45 -6 0 -10 -3 -10
-6z"/>
<path d="M2775 3710 c10 -11 20 -18 23 -15 7 6 -18 35 -31 35 -5 0 -2 -9 8
-20z"/>
<path d="M2364 3709 c-5 -8 -3 -9 6 -4 9 5 10 2 6 -11 -3 -11 -2 -25 3 -33 7
-11 12 -9 22 10 11 23 11 23 -6 9 -16 -14 -17 -13 -11 7 7 23 -8 41 -20 22z"/>
<path d="M2464 3704 c-4 -10 -9 -22 -11 -26 -2 -5 0 -8 6 -8 11 0 26 39 17 47
-3 3 -9 -3 -12 -13z"/>
<path d="M2630 3711 c0 -17 12 -41 20 -41 10 0 1 38 -11 46 -5 3 -9 1 -9 -5z"/>
<path d="M2487 3697 c-11 -29 -9 -43 4 -30 6 6 9 19 7 29 -3 18 -4 18 -11 1z"/>
<path d="M2576 3698 c-10 -23 -4 -49 10 -40 6 4 7 18 4 32 -6 21 -8 22 -14 8z"/>
<path d="M2600 3698 c0 -17 18 -44 24 -37 8 7 -5 49 -15 49 -5 0 -9 -6 -9 -12z"/>
<path d="M2740 3702 c0 -5 6 -16 13 -27 10 -13 16 -15 21 -6 4 6 2 18 -4 26
-13 16 -30 20 -30 7z"/>
<path d="M2510 3674 c0 -14 4 -23 10 -19 6 3 10 15 10 26 0 10 -4 19 -10 19
-5 0 -10 -12 -10 -26z"/>
<path d="M2540 3675 c0 -14 5 -25 10 -25 6 0 10 11 10 25 0 14 -4 25 -10 25
-5 0 -10 -11 -10 -25z"/>
<path d="M2710 3683 c1 -18 28 -44 35 -33 4 6 1 17 -5 25 -13 16 -30 20 -30 8z"/>
<path d="M2406 3654 c-4 -9 -4 -19 -2 -21 8 -8 26 8 26 23 0 19 -16 18 -24 -2z"/>
<path d="M2437 3641 c-5 -22 1 -33 14 -25 12 7 12 44 0 44 -5 0 -11 -9 -14
-19z"/>
<path d="M2650 3646 c0 -9 5 -16 10 -16 19 0 10 -28 -12 -33 -29 -8 -40 0 -33
24 4 13 2 19 -9 19 -19 0 -30 -17 -16 -25 5 -3 10 -14 10 -24 0 -11 7 -18 16
-17 29 2 26 -21 -3 -27 -18 -4 -32 -1 -39 8 -11 14 -114 15 -115 1 -2 -24 8
-29 41 -18 44 16 60 15 60 -3 0 -11 8 -13 33 -9 51 9 57 12 57 33 0 19 18 31
46 31 21 0 17 -18 -5 -25 -11 -3 -21 -16 -23 -27 -3 -25 -41 -39 -101 -39 -30
0 -37 -3 -33 -15 3 -9 6 -18 6 -20 0 -9 28 -4 32 6 2 5 18 13 36 16 31 6 33 5
30 -17 -2 -16 2 -25 15 -27 10 -2 17 3 17 12 0 9 -4 16 -10 16 -5 0 -10 7 -10
15 0 9 9 15 24 15 19 0 22 4 19 24 -4 18 0 26 17 31 14 4 19 12 16 22 -3 8 -6
19 -6 24 0 5 -9 9 -21 9 -15 0 -19 5 -17 22 2 15 -3 24 -14 26 -11 2 -18 -3
-18 -12z"/>
<path d="M2468 3625 c-4 -17 -1 -25 8 -25 8 0 14 11 14 25 0 14 -4 25 -9 25
-5 0 -11 -11 -13 -25z"/>
<path d="M2500 3616 c0 -14 5 -26 10 -26 6 0 10 7 10 15 0 8 0 18 1 22 0 4 -4
9 -10 11 -6 2 -11 -8 -11 -22z"/>
<path d="M2540 3615 c0 -14 5 -25 10 -25 6 0 10 11 10 25 0 14 -4 25 -10 25
-5 0 -10 -11 -10 -25z"/>
<path d="M2748 3634 c-11 -10 3 -34 19 -34 8 0 13 7 11 17 -3 18 -20 27 -30
17z"/>
<path d="M2570 3600 c0 -5 5 -10 11 -10 5 0 7 5 4 10 -3 6 -8 10 -11 10 -2 0
-4 -4 -4 -10z"/>
<path d="M2770 3576 c0 -8 4 -17 8 -20 13 -8 35 11 28 23 -10 16 -36 14 -36
-3z"/>
<path d="M2750 3558 c0 -9 -6 -18 -12 -21 -7 -2 -10 -7 -7 -11 3 -3 13 0 22 7
12 8 14 16 7 27 -8 13 -10 13 -10 -2z"/>
<path d="M2746 3511 c-8 -13 3 -38 20 -45 8 -3 14 -10 14 -16 0 -6 -5 -8 -12
-4 -7 4 -8 3 -4 -4 4 -7 1 -12 -6 -12 -7 0 -13 -11 -13 -25 0 -14 3 -25 8 -25
4 0 7 9 7 20 0 13 12 25 35 34 38 16 48 32 13 21 -17 -6 -20 -4 -15 9 12 31
-31 74 -47 47z"/>
<path d="M2684 3478 c-4 -7 -3 -8 4 -4 7 4 12 1 12 -8 0 -9 7 -16 15 -16 20 0
19 26 -1 34 -21 8 -22 8 -30 -6z"/>
<path d="M2605 3430 c-8 -13 4 -32 16 -25 12 8 12 35 0 35 -6 0 -13 -4 -16
-10z"/>
<path d="M2703 3409 c-1 -11 5 -19 13 -19 18 0 19 26 1 33 -8 3 -14 -3 -14
-14z"/>
<path d="M4238 3913 c7 -3 16 -2 19 1 4 3 -2 6 -13 5 -11 0 -14 -3 -6 -6z"/>
<path d="M4280 3909 c0 -5 9 -9 20 -9 11 0 20 2 20 4 0 2 -9 6 -20 9 -11 3
-20 1 -20 -4z"/>
<path d="M4208 3873 c7 -3 16 -2 19 1 4 3 -2 6 -13 5 -11 0 -14 -3 -6 -6z"/>
<path d="M4158 3863 c7 -3 16 -2 19 1 4 3 -2 6 -13 5 -11 0 -14 -3 -6 -6z"/>
<path d="M4208 3853 c7 -3 16 -2 19 1 4 3 -2 6 -13 5 -11 0 -14 -3 -6 -6z"/>
<path d="M4145 3840 c-3 -5 1 -10 9 -10 8 0 18 5 21 10 3 6 -1 10 -9 10 -8 0
-18 -4 -21 -10z"/>
<path d="M4250 3840 c0 -5 7 -7 15 -4 8 4 15 8 15 10 0 2 -7 4 -15 4 -8 0 -15
-4 -15 -10z"/>
<path d="M4110 3830 c-8 -5 -11 -12 -7 -16 4 -4 13 -2 19 4 15 15 7 24 -12 12z"/>
<path d="M4197 3833 c-4 -3 -7 -12 -7 -20 0 -11 5 -11 20 -3 11 6 20 15 20 20
0 11 -23 13 -33 3z"/>
<path d="M4140 3798 c0 -30 15 -52 29 -44 18 11 13 26 -6 20 -17 -5 -17 -5 0
9 23 19 22 37 -3 37 -14 0 -20 -7 -20 -22z"/>
<path d="M4214 3795 c-19 -15 -19 -15 1 -9 20 6 20 5 1 -10 -11 -9 -15 -16 -9
-16 7 0 15 5 18 10 3 6 11 10 17 10 6 0 4 -8 -5 -17 -13 -16 -13 -20 -1 -31
13 -11 18 -11 32 0 15 12 16 11 3 -5 -8 -9 -11 -21 -7 -25 4 -4 14 1 21 12 11
14 11 21 2 31 -7 8 -16 10 -21 4 -17 -16 -29 -10 -15 7 11 14 11 18 -4 29 -9
6 -14 15 -10 18 12 13 -3 7 -23 -8z"/>
<path d="M4273 3793 c0 -7 4 -13 9 -13 4 0 11 0 15 0 4 0 8 5 9 13 1 7 -6 13
-16 13 -9 0 -17 -6 -17 -13z"/>
<path d="M4309 3763 c-13 -16 -12 -17 4 -4 9 7 17 15 17 17 0 8 -8 3 -21 -13z"/>
<path d="M4330 3755 c-7 -9 -8 -15 -2 -15 5 0 12 7 16 15 3 8 4 15 2 15 -2 0
-9 -7 -16 -15z"/>
<path d="M4355 3749 c-4 -6 -5 -12 -2 -15 2 -3 7 2 10 11 7 17 1 20 -8 4z"/>
<path d="M4376 3745 c-9 -26 -7 -32 5 -12 6 10 9 21 6 23 -2 3 -7 -2 -11 -11z"/>
<path d="M4484 3748 c-3 -5 -1 -15 5 -21 7 -7 12 -6 17 6 3 9 11 14 18 10 6
-3 7 -2 3 2 -11 13 -36 15 -43 3z"/>
<path d="M4165 3739 c-11 -17 1 -21 15 -4 8 9 8 15 2 15 -6 0 -14 -5 -17 -11z"/>
<path d="M4397 3736 c-4 -10 -5 -21 -2 -24 9 -9 17 6 13 25 -3 17 -4 17 -11
-1z"/>
<path d="M4422 3730 c0 -14 2 -19 5 -12 2 6 2 18 0 25 -3 6 -5 1 -5 -13z"/>
<path d="M4440 3730 c0 -11 4 -20 9 -20 5 0 7 9 4 20 -3 11 -7 20 -9 20 -2 0
-4 -9 -4 -20z"/>
<path d="M4556 3741 c-4 -5 -2 -12 3 -15 5 -4 12 -2 15 3 4 5 2 12 -3 15 -5 4
-12 2 -15 -3z"/>
<path d="M4187 3722 c-10 -11 -14 -23 -9 -26 12 -7 35 19 30 34 -2 7 -11 3
-21 -8z"/>
<path d="M4302 3718 c-14 -14 -16 -38 -3 -38 10 0 26 39 19 46 -2 2 -10 -2
-16 -8z"/>
<path d="M4130 3705 c-7 -9 -11 -18 -8 -20 3 -3 11 1 18 10 7 9 11 18 8 20 -3
3 -11 -1 -18 -10z"/>
<path d="M4520 3710 c0 -8 5 -22 10 -30 9 -13 10 -13 10 0 0 8 -5 22 -10 30
-9 13 -10 13 -10 0z"/>
<path d="M4546 3707 c3 -10 9 -15 12 -12 3 3 0 11 -7 18 -10 9 -11 8 -5 -6z"/>
<path d="M4201 3696 c-9 -11 -9 -16 0 -21 10 -7 28 10 29 28 0 12 -17 8 -29
-7z"/>
<path d="M4323 3695 c-9 -25 4 -29 17 -6 7 15 7 21 0 21 -6 0 -13 -7 -17 -15z"/>
<path d="M4353 3690 c-6 -15 -7 -26 -1 -29 15 -5 20 5 16 31 l-5 23 -10 -25z"/>
<path d="M4380 3675 c0 -14 5 -25 10 -25 6 0 10 4 10 9 0 5 3 16 6 25 4 11 1
16 -10 16 -10 0 -16 -9 -16 -25z"/>
<path d="M4418 3675 c-3 -14 -1 -25 3 -25 5 0 9 11 9 25 0 14 -2 25 -4 25 -2
0 -6 -11 -8 -25z"/>
<path d="M4446 3691 c-7 -11 3 -41 14 -41 4 0 5 11 2 25 -5 27 -8 30 -16 16z"/>
<path d="M4470 3688 c0 -7 5 -20 10 -28 8 -12 10 -11 10 7 0 12 -4 25 -10 28
-5 3 -10 0 -10 -7z"/>
<path d="M4500 3683 c0 -13 5 -23 10 -23 13 0 13 11 0 30 -8 12 -10 11 -10 -7z"/>
<path d="M4143 3674 c-3 -9 3 -24 15 -36 l20 -20 11 20 c14 26 -3 39 -27 21
-14 -11 -15 -11 -4 1 6 8 12 18 12 22 0 14 -20 8 -27 -8z"/>
<path d="M4230 3675 c-13 -15 -5 -39 11 -30 5 4 9 1 9 -4 0 -6 5 -11 11 -11 8
0 8 4 0 14 -6 7 -9 21 -5 30 8 20 -9 21 -26 1z"/>
<path d="M4573 3674 c-3 -8 0 -21 7 -27 10 -10 11 -7 5 13 -7 23 -7 24 11 10
18 -14 18 -14 5 3 -17 21 -20 21 -28 1z"/>
<path d="M4540 3648 c0 -7 4 -19 9 -27 11 -17 23 1 15 23 -7 19 -24 21 -24 4z"/>
<path d="M4515 3637 c-4 -10 -3 -23 4 -30 16 -16 26 0 14 25 -10 21 -11 22
-18 5z"/>
<path d="M4197 3633 c-4 -3 -7 -12 -7 -20 0 -17 26 -17 33 1 8 21 -11 35 -26
19z"/>
<path d="M4480 3615 c0 -14 6 -25 14 -25 9 0 12 8 8 25 -2 14 -8 25 -13 25 -5
0 -9 -11 -9 -25z"/>
<path d="M4134 3616 c-9 -23 5 -39 22 -25 20 16 17 -1 -6 -36 -25 -38 -25 -45
-1 -45 26 0 36 17 20 36 -11 13 -10 15 6 12 31 -5 27 25 -5 50 -25 20 -31 21
-36 8z"/>
<path d="M4410 3605 c0 -14 5 -25 10 -25 6 0 10 11 10 25 0 14 -4 25 -10 25
-5 0 -10 -11 -10 -25z"/>
<path d="M4450 3605 c0 -14 5 -25 10 -25 6 0 10 11 10 25 0 14 -4 25 -10 25
-5 0 -10 -11 -10 -25z"/>
<path d="M4205 3560 c-8 -14 9 -34 23 -29 7 3 6 11 -3 22 -9 13 -15 15 -20 7z"/>
<path d="M4235 3472 c-9 -9 -6 -20 9 -25 7 -3 20 3 28 13 14 16 14 18 -8 18
-13 0 -26 -3 -29 -6z"/>
<path d="M4330 3415 c0 -8 7 -15 15 -15 8 0 15 7 15 15 0 8 -7 15 -15 15 -8 0
-15 -7 -15 -15z"/>
<path d="M4296 3321 c-12 -4 0 -7 33 -7 28 0 51 3 51 8 0 10 -58 9 -84 -1z"/>
<path d="M3215 3759 c4 -6 -2 -13 -14 -16 -11 -3 -18 -9 -15 -14 3 -5 11 -7
17 -3 7 3 3 -2 -7 -10 -11 -9 -17 -18 -14 -21 8 -8 48 44 48 61 0 8 -5 14 -11
14 -5 0 -7 -5 -4 -11z"/>
<path d="M3240 3759 c0 -5 5 -7 10 -4 6 3 10 8 10 11 0 2 -4 4 -10 4 -5 0 -10
-5 -10 -11z"/>
<path d="M3642 3739 l-24 -9 20 -33 c10 -17 25 -30 33 -28 8 2 22 3 31 3 9 0
19 7 23 16 3 9 3 13 -1 10 -4 -4 -16 -2 -27 3 -15 8 -16 13 -7 19 14 9 5 30
-13 29 -7 0 -23 -4 -35 -10z m21 -19 c-3 -11 -9 -20 -15 -20 -5 0 -4 9 2 20 6
11 12 20 14 20 2 0 2 -9 -1 -20z"/>
<path d="M3523 3720 c-12 -18 0 -40 14 -26 4 3 1 6 -6 6 -7 0 -9 5 -6 10 4 6
11 8 16 5 5 -3 6 1 3 9 -8 20 -7 20 -21 -4z"/>
<path d="M3219 3676 c-16 -31 -16 -33 4 -49 11 -9 25 -14 30 -10 5 3 0 11 -11
17 -20 11 -20 14 -7 39 7 14 11 29 7 31 -4 2 -14 -11 -23 -28z"/>
<path d="M3540 3670 c0 -5 5 -10 11 -10 5 0 7 5 4 10 -3 6 -8 10 -11 10 -2 0
-4 -4 -4 -10z"/>
<path d="M3440 3578 c0 -7 10 -26 21 -43 12 -16 18 -21 14 -10 -4 11 -8 30 -8
43 -1 22 -27 32 -27 10z"/>
<path d="M3262 3505 c-15 -33 -15 -35 2 -35 8 0 16 10 18 23 2 16 9 21 23 19
16 -2 17 -1 5 7 -24 17 -36 13 -48 -14z"/>
<path d="M2960 3870 c0 -5 7 -10 15 -10 8 0 15 5 15 10 0 6 -7 10 -15 10 -8 0
-15 -4 -15 -10z"/>
<path d="M4012 3699 c2 -6 8 -10 13 -10 5 0 11 4 13 10 2 6 -4 11 -13 11 -9 0
-15 -5 -13 -11z"/>
<path d="M4705 3630 c3 -5 8 -10 11 -10 2 0 4 5 4 10 0 6 -5 10 -11 10 -5 0
-7 -4 -4 -10z"/>
<path d="M3940 3325 c0 -8 7 -15 16 -15 14 0 14 3 4 15 -7 8 -14 15 -16 15 -2
0 -4 -7 -4 -15z"/>
<path d="M3396 3061 c-4 -7 -5 -15 -2 -18 9 -9 19 4 14 18 -4 11 -6 11 -12 0z"/>
<path d="M2332 2678 c-12 -46 -22 -86 -22 -90 0 -16 19 -7 25 12 5 16 15 20
46 20 32 0 39 -3 39 -20 0 -11 7 -20 15 -20 8 0 15 1 15 3 0 1 -11 40 -24 87
-20 76 -26 85 -48 88 -23 3 -26 -2 -46 -80z m64 11 l12 -39 -30 0 c-23 0 -28
4 -24 18 3 9 8 30 12 45 8 34 15 28 30 -24z"/>
<path d="M2497 2753 c-4 -3 -7 -44 -7 -90 l0 -83 55 0 c30 0 55 5 55 10 0 6
-18 10 -40 10 l-40 0 0 80 c0 73 -6 91 -23 73z"/>
<path d="M2637 2753 c-4 -3 -7 -44 -7 -90 l0 -83 55 0 c30 0 55 5 55 10 0 6
-18 10 -40 10 l-40 0 0 80 c0 73 -6 91 -23 73z"/>
<path d="M2780 2671 c0 -75 3 -91 15 -91 13 0 15 14 13 87 -2 58 -7 88 -15 91
-10 3 -13 -19 -13 -87z"/>
<path d="M2895 2748 c-2 -7 -11 -40 -20 -73 -9 -33 -18 -68 -21 -77 -4 -12 0
-18 10 -18 9 0 16 9 16 20 0 17 7 20 39 20 31 0 41 -4 46 -20 7 -21 25 -28 25
-9 0 7 -10 47 -22 90 -19 70 -24 79 -45 79 -13 0 -25 -6 -28 -12z m54 -85 c1
-8 -11 -13 -28 -13 -32 0 -32 0 -4 80 3 10 10 3 18 -20 8 -19 14 -41 14 -47z"/>
<path d="M3040 2671 c0 -74 3 -91 15 -91 12 0 15 15 15 73 l1 72 32 -72 c26
-61 35 -73 55 -73 22 0 23 2 20 87 -2 56 -7 88 -15 90 -9 3 -13 -18 -15 -73
l-3 -77 -31 74 c-23 57 -35 75 -52 77 -21 3 -22 0 -22 -87z"/>
<path d="M3246 2738 c-9 -12 -16 -43 -16 -68 0 -63 21 -90 70 -90 54 0 60 18
8 22 l-43 3 -3 59 c-3 66 4 76 56 76 20 0 31 4 27 10 -3 6 -24 10 -45 10 -29
0 -43 -6 -54 -22z"/>
<path d="M3397 2753 c-4 -3 -7 -44 -7 -90 l0 -83 60 0 c33 0 60 4 60 10 0 6
-20 10 -45 10 -43 0 -45 1 -45 30 0 28 3 30 35 30 19 0 35 5 35 10 0 6 -16 10
-35 10 -32 0 -35 2 -35 30 0 29 2 30 45 30 25 0 45 5 45 10 0 11 -103 14 -113
3z"/>
<path d="M3630 2670 l0 -90 45 0 c62 0 85 24 85 90 0 66 -23 90 -85 90 l-45 0
0 -90z m90 50 c39 -39 15 -120 -36 -120 -23 0 -24 2 -24 70 0 63 2 70 20 70
11 0 29 -9 40 -20z"/>
<path d="M3820 2671 c0 -75 3 -91 15 -91 13 0 15 14 13 87 -2 58 -7 88 -15 91
-10 3 -13 -19 -13 -87z"/>
<path d="M3916 2738 c-20 -29 -21 -107 0 -136 12 -18 25 -22 65 -22 l49 0 0
45 c0 41 -2 45 -25 45 -14 0 -25 -4 -25 -10 0 -5 5 -10 10 -10 6 0 10 -12 10
-26 0 -23 -3 -25 -32 -22 -32 3 -33 4 -36 56 -4 65 9 84 55 80 18 -1 34 2 35
7 2 6 -18 11 -44 13 -39 3 -49 -1 -62 -20z"/>
<path d="M4080 2671 c0 -75 3 -91 15 -91 13 0 15 14 13 87 -2 58 -7 88 -15 91
-10 3 -13 -19 -13 -87z"/>
<path d="M4150 2745 c0 -9 9 -15 25 -15 24 0 25 -2 25 -75 0 -60 3 -75 15 -75
12 0 15 15 15 74 0 69 2 75 22 78 12 2 23 9 26 16 3 9 -14 12 -62 12 -52 0
-66 -3 -66 -15z"/>
<path d="M4335 2748 c-2 -7 -11 -40 -20 -73 -9 -33 -18 -68 -21 -77 -4 -12 0
-18 10 -18 9 0 16 9 16 20 0 17 7 20 39 20 31 0 41 -4 46 -20 7 -21 25 -28 25
-9 0 7 -10 47 -22 90 -19 70 -24 79 -45 79 -13 0 -25 -6 -28 -12z m54 -85 c1
-8 -11 -13 -28 -13 -32 0 -32 0 -4 80 3 10 10 3 18 -20 8 -19 14 -41 14 -47z"/>
<path d="M4480 2671 l0 -91 50 0 c28 0 50 5 50 10 0 6 -16 10 -35 10 l-34 0
-3 77 c-2 50 -7 78 -15 81 -10 3 -13 -19 -13 -87z"/>
<path d="M2252 2478 c-7 -7 -12 -30 -12 -53 0 -23 5 -46 12 -53 14 -14 68 -16
68 -2 0 6 -14 10 -31 10 -29 0 -30 1 -27 43 3 38 6 42 31 45 15 2 27 8 27 13
0 13 -54 11 -68 -3z"/>
<path d="M2372 2477 c-18 -21 -24 -62 -13 -90 10 -25 15 -28 48 -25 35 3 39 6
47 40 7 29 6 42 -8 62 -18 28 -56 35 -74 13z m62 -23 c17 -45 -4 -91 -37 -78
-39 15 -33 94 7 94 13 0 27 -7 30 -16z"/>
<path d="M2500 2425 c0 -37 4 -65 10 -65 6 0 10 11 10 25 0 14 6 25 13 25 8 0
19 -11 25 -25 6 -14 16 -25 22 -25 7 0 8 6 1 19 -7 13 -6 28 2 50 11 29 10 34
-7 47 -11 8 -32 14 -48 14 -28 0 -28 0 -28 -65z m65 20 c0 -13 -8 -21 -22 -23
-19 -3 -23 1 -23 23 0 22 4 26 23 23 14 -2 22 -10 22 -23z"/>
<path d="M2630 2425 c0 -37 4 -65 10 -65 6 0 10 9 10 20 0 14 7 20 23 20 44 0
62 43 31 74 -8 9 -29 16 -45 16 l-29 0 0 -65z m68 18 c3 -19 -1 -23 -22 -23
-21 0 -26 5 -26 26 0 21 4 25 23 22 14 -2 23 -11 25 -25z"/>
<path d="M2766 2474 c-19 -18 -21 -85 -4 -102 7 -7 24 -12 38 -12 36 0 50 17
50 61 0 41 -21 69 -50 69 -10 0 -26 -7 -34 -16z m62 -50 c2 -30 -1 -43 -12
-47 -30 -12 -46 4 -46 42 0 44 7 53 35 49 16 -2 21 -12 23 -44z"/>
<path d="M2897 2483 c-11 -10 -8 -123 3 -123 6 0 10 11 10 25 0 16 6 25 15 25
9 0 21 -11 27 -25 6 -14 15 -25 20 -25 11 0 10 7 -2 30 -7 13 -7 21 0 25 16
10 12 62 -6 69 -21 8 -59 8 -67 -1z m63 -38 c0 -20 -5 -25 -25 -25 -20 0 -25
5 -25 25 0 20 5 25 25 25 20 0 25 -5 25 -25z"/>
<path d="M3046 2478 c-21 -65 -32 -118 -25 -118 5 0 12 7 15 15 4 8 16 15 29
15 13 0 25 -7 29 -15 3 -8 9 -15 14 -15 17 0 -24 125 -42 128 -9 2 -18 -2 -20
-10z m34 -50 c0 -10 -7 -18 -15 -18 -16 0 -19 17 -9 45 5 13 8 14 15 3 5 -7 9
-21 9 -30z"/>
<path d="M3130 2480 c0 -5 9 -10 20 -10 18 0 20 -7 20 -55 0 -30 5 -55 10 -55
6 0 10 25 10 55 0 42 3 55 15 55 8 0 15 5 15 10 0 6 -20 10 -45 10 -25 0 -45
-4 -45 -10z"/>
<path d="M3260 2425 l0 -65 41 0 c24 0 38 4 34 10 -3 6 -17 10 -31 10 -36 0
-33 37 4 43 l27 4 -27 2 c-21 1 -28 6 -28 21 0 16 7 20 31 20 17 0 28 4 24 10
-3 6 -22 10 -41 10 l-34 0 0 -65z"/>
<path d="M3437 2483 c-4 -3 -7 -33 -7 -65 l0 -59 43 3 42 3 2 50 c1 27 -3 55
-9 62 -11 14 -60 18 -71 6z m63 -33 c0 -15 -7 -20 -25 -20 -18 0 -25 5 -25 20
0 15 7 20 25 20 18 0 25 -5 25 -20z m-2 -52 c3 -13 -3 -18 -22 -18 -20 0 -26
5 -26 21 0 15 5 20 22 17 13 -2 24 -11 26 -20z"/>
<path d="M3586 2478 c-21 -65 -32 -118 -25 -118 5 0 12 7 15 15 4 8 16 15 29
15 13 0 25 -7 29 -15 3 -8 9 -15 14 -15 17 0 -24 125 -42 128 -9 2 -18 -2 -20
-10z m34 -50 c0 -10 -7 -18 -15 -18 -16 0 -19 17 -9 45 5 13 8 14 15 3 5 -7 9
-21 9 -30z"/>
<path d="M3697 2484 c-11 -11 -8 -124 3 -124 6 0 10 24 11 53 l0 52 24 -52
c33 -74 55 -71 55 6 0 33 -4 63 -10 66 -6 4 -10 -16 -10 -52 l-1 -58 -23 55
c-24 54 -36 67 -49 54z"/>
<path d="M3846 2474 c-19 -18 -21 -85 -4 -102 7 -7 21 -12 31 -12 11 0 26 -8
34 -17 13 -17 14 -16 10 4 -3 13 -1 26 4 29 5 3 9 23 9 44 0 42 -20 70 -50 70
-10 0 -26 -7 -34 -16z m62 -50 c2 -30 -1 -43 -12 -47 -30 -12 -46 4 -46 42 0
44 7 53 35 49 16 -2 21 -12 23 -44z"/>
<path d="M3978 2484 c-13 -12 -9 -99 4 -112 19 -19 66 -15 78 7 13 25 13 98 0
106 -6 4 -10 -13 -10 -43 0 -93 -57 -98 -62 -5 -2 30 -6 51 -10 47z"/>
<path d="M4117 2483 c-4 -3 -7 -33 -7 -65 l0 -58 40 0 c22 0 40 5 40 10 0 6
-13 10 -30 10 -41 0 -43 37 -2 43 l27 4 -27 2 c-21 1 -28 6 -28 21 0 16 7 20
30 20 17 0 30 5 30 10 0 11 -63 14 -73 3z"/>
<path d="M4290 2426 l0 -66 35 0 c19 0 35 5 35 10 0 6 -11 10 -25 10 -23 0
-25 3 -25 49 0 28 -4 53 -10 56 -6 4 -10 -18 -10 -59z"/>
<path d="M4370 2480 c0 -5 7 -10 15 -10 12 0 15 -13 15 -55 0 -30 5 -55 10
-55 6 0 10 25 10 55 0 48 2 55 20 55 11 0 20 5 20 10 0 6 -20 10 -45 10 -25 0
-45 -4 -45 -10z"/>
<path d="M4496 2482 c-2 -4 -5 -33 -5 -65 l0 -57 39 0 c44 0 60 18 60 69 0 20
-8 35 -22 45 -24 17 -64 21 -72 8z m69 -57 c0 -36 -3 -40 -27 -43 -27 -3 -28
-2 -28 43 0 45 1 46 28 43 24 -3 27 -7 27 -43z"/>
</g>
</svg>
